<svg xmlns="http://www.w3.org/2000/svg" version="1.1" width="600px" height="600px" xlink="http://www.w3.org/1999/xlink" style="overflow:hidden!important;"><g id="svga-group-wrapper" transform="scale(3 3)"><g id="svga-group-backs-single"></g><g id="svga-group-subwrapper" transform="matrix(0.84999948 0 0 0.84999948 15.000126744483666 17.722090794517015) translate(0 -6.0000002)"><g id="svga-group-hair-back" transform="matrix(0.9599996900000001 0 0 0.9997996900000001 4.000030999999993 0.020030999999988808) rotate(-1e-7 100 150)"><path id="SvgjsPath3055" d="M100.5,100.5h-1v-1h1V100.5z" fill="#080806" stroke-width="none" opacity="1" stroke="none"></path></g><g id="svga-group-humanbody-single"><path id="SvgjsPath2893" d="M195.417 199.778c-2.196-4.746-8.195-11.779-14.86-13.722 -8.239-2.403-26.837-5.308-33.733-6.923 -5.528-1.296-16.662-11.294-20.564-14.65 -0.7-0.6-1.273-1.839-1.287-2.76 -0.139-10.864 4.195-39.724 4.195-39.724H100 70.833c0 0 4.334 28.859 4.193 39.724 -0.011 0.921-0.587 2.16-1.285 2.76 -3.902 3.356-15.036 13.354-20.564 14.65 -6.897 1.615-25.495 4.619-33.733 7.022 -6.667 1.942-12.664 8.876-14.86 13.622 -3.708 8.008-4.584 22.5-4.584 35h100 100C200 222.278 199.123 207.786 195.417 199.778z" fill="#764630" stroke-width="none" opacity="1" stroke="none"></path><path id="SvgjsPath2894" d="M159.156 184.058c24.342 3.542 34.586 8.708 37.794 50.721H200c0-12.5-0.877-26.992-4.583-35 -2.196-4.746-8.195-11.779-14.86-13.722 -8.239-2.403-26.837-5.308-33.733-6.923 -5.528-1.296-18.242-12.069-21.643-16.35 3.36 4.704 12.791 15.605 21.054 18.46C150.188 182.61 153.48 183.232 159.156 184.058zM53.766 181.244c8.263-2.854 17.693-13.756 21.054-18.46 -3.4 4.28-16.114 15.054-21.643 16.35 -6.896 1.615-25.494 4.619-33.733 7.022 -6.665 1.942-12.664 8.876-14.86 13.622 -3.706 8.008-4.583 22.5-4.583 35h3.05c3.188-41.744 13.475-47.183 37.794-50.721C46.52 183.232 49.813 182.61 53.766 181.244z" fill="#855844" stroke-width="none" opacity="1" stroke="none"></path><path id="SvgjsPath2895" d="M95.646 197.62c0 0-5.074-1.609-7.083-2.379 -10.449-4.009-44.395-6.607-44.395-6.607s35.754 1.419 43.644 2.779c-0.458-4.767-3.017-20.004-3.017-20.004s5.149 16.815 6.409 21.057C91.878 194.734 95.646 197.62 95.646 197.62zM106.445 196.278c-0.089 0.073-0.191 0.168-0.302 0.268C106.256 196.461 106.358 196.372 106.445 196.278zM95.646 197.62c0 0 2.893 2.992 4.347 3.03 1.91 0.051 4.828-2.899 6.151-4.104 -1.265 0.957-4.159 1.391-5.31 1.436C99.504 198.033 95.646 197.62 95.646 197.62zM116.664 190.101c-1.545 0.248-4.386 0.789-4.386 0.789l2.287-14.89c-0.646 3.071-4.474 16.211-8.12 20.278 1.91-1.616 6.158-2.391 8.324-2.704 10.236-1.484 10.232-1.483 41.062-4.94C155.831 188.634 126.76 188.479 116.664 190.101z" fill="#673620" stroke-width="none" opacity="1" stroke="none"></path><path id="SvgjsPath2896" d="M195.417 199.778c-2.196-4.746-8.195-11.779-14.86-13.722 -8.239-2.403-26.837-5.308-33.733-6.923 -5.528-1.296-16.662-11.294-20.564-14.65 -0.7-0.6-1.273-1.839-1.287-2.76 -0.139-10.864 4.195-39.724 4.195-39.724H100 70.833c0 0 4.334 28.859 4.193 39.724 -0.011 0.921-0.587 2.16-1.285 2.76 -3.902 3.356-15.036 13.354-20.564 14.65 -6.897 1.615-25.495 4.619-33.733 7.022 -6.667 1.942-12.664 8.876-14.86 13.622 -3.708 8.008-4.584 22.5-4.584 35h100 100C200 222.278 199.123 207.786 195.417 199.778z" fill="none" stroke="#481c08" stroke-width="1.5" opacity="1"></path></g><g id="svga-group-chinshadow-single"><path id="SvgjsPath4884" d="M100.021 171.866c8.183 0 16.871-4.943 24.199-10.675 -0.001-6.702 1.451-19.105 2.652-28.205 -15.382-2.247-38.406-2.279-53.766-0.152 1.184 8.96 2.625 21.206 2.671 28.02C83.119 166.767 91.822 171.866 100.021 171.866z" fill="url(#SvgjsLinearGradient4885)" opacity="1"></path></g><g id="svga-group-clothes-single" ><path id="SvgjsPath5301" d="M42.77 235.757l1.323-60.852c0 0 10.194-2.487 16.635-6.313 17.496 21.953 69.451 17.333 78.336-0.62 1.489 0.525 2.721 1.197 4.262 1.713 5 3.386 9.213 4.494 9.213 4.494l0.935 61.685C139.188 236.052 42.77 235.757 42.77 235.757z" fill="#f5f4f5" stroke-width="none" opacity="1"></path><path id="SvgjsPath5302" d="M154.014 177.705c-4.236-0.719-7.611-1.697-9.452-3.544 -5.343 10.025-26.763 16.378-33.855 17.309 20.554-6.276 29.188-10.813 32.598-21.583 1.99 2.383 6.522 3.549 12.313 4.538L154.014 177.705zM52.67 174.381c1.454-0.312 2.18-1.234 3.623-1.593l-1.528-1.867c-3.114 2.234-8.971 3.305-15.9 4.424l0.188 3.738c3.956-0.79 7.817-1.788 11.429-3.323 7.483 8.485 19.168 12.659 31.06 14.387C66.624 186.562 58.07 180.511 52.67 174.381z" fill="#ffffff" stroke-width="none" opacity="1"></path><path id="SvgjsPath5303" d="M137.861 170.055c-5.929 11.361-50.74 24.595-76.009 0.866 -1.571 0.615-6.271 2.085-6.271 2.085 18.406 23.08 72.345 23.227 86.702-0.112C142.221 172.87 139.321 170.737 137.861 170.055z" fill="#dfdde2" stroke-width="none" opacity="1"></path><path id="SvgjsPath5304" d="M139.008 167.841c-10.087 18.575-62.578 21.204-78.239 0.625 -5.72 1.556-11.219 4.876-16.756 5.707l-1.243 61.584 110.703 0.107 -0.855-62.386c-3.369-0.707-6.501-2.737-9.254-3.894C141.842 168.945 140.55 168.37 139.008 167.841zM60.39 169.087c13.903 23.086 68.817 18.455 79.419 0.099 1.286 0.499 1.615 0.696 3.106 1.183 -10.982 21.208-65.306 27.967-87.525 1.147C55.546 171.476 58.823 169.629 60.39 169.087zM54.287 172.418c17.963 27.046 77.26 22.856 89.583-1.287 1.771 1.391 4.53 2.989 7.936 3.735l1.66 59.08 -110.377 0.016 1.904-58.299C47.777 174.264 52.247 173.232 54.287 172.418z" fill="#b8b6c9" stroke-width="none" opacity="1"></path><path id="SvgjsPath5305" d="M-4.529 235.566c-2.574-13.852-2.292-47.592 9.013-47.521 13.136-5.311 29.269-11.404 42.802-15.311 6.908-7.246 13.436-14.137 26.188-21.314 0.389 2.599 1.874 8.541 0.011 11.773 -1.355 2.352-5.783 5.576-9.554 8.368 -2.029 2.72-3.927 5.374-6.599 9.089 5.168 22.301 9.601 33.78 10.097 53.123 0 0-1.452 0.689 64.471 0.397 2.215-22.339 4.993-33.561 10.379-54.098 0 0-4.308-5.014-7.207-8.87 -2.054-1.997-8.36-7.532-8.84-8.651 -1.175-2.741-0.548-6.188 0.11-11.367 10.793 4.873 17 12.021 26.082 21.303 7.729 2.119 30.86 9.967 42.445 15.216 3.965-0.11 6.203 1.999 7.872 5.466 5.405 11.195 4.126 27.297 2.18 42.789C185.83 235.989 49.887 238.17-4.529 235.566z" fill="#39557e" stroke-width="none" opacity="1" stroke="none"></path><path id="SvgjsPath5306" d="M73.875 154.081c0.16 1.07 0.304 2.085 0.411 3.041 -0.218 0.266-17.212 23.353-17.336 23.525C61.126 171.148 67.1 161.305 73.875 154.081zM126.053 154.081c-0.159 1.07-0.184 2.085-0.291 3.041 0.218 0.266 16.931 22.469 17.054 22.642C138.391 170.914 132.828 161.305 126.053 154.081zM165.008 185.154c-4.28 6.231-5.194 8.382-9.879 14.557 1.071 0 2.799 0.166 3.87 0.166C162.663 193.592 162.67 190.393 165.008 185.154zM169.394 230.379c3.793-8.9 6.934-16.711 10.739-25.624l-1.247-2.014C175.717 211.896 172.354 221.199 169.394 230.379zM41.048 199.877c1.071 0 2.799-0.166 3.871-0.166 -4.685-6.175-5.599-6.561-9.878-12.792C37.377 192.158 37.384 193.592 41.048 199.877zM21.161 202.741l-1.247 2.014c3.806 8.913 4.765 16.724 8.559 25.624C25.512 221.199 24.33 211.896 21.161 202.741z" fill="#27446f" stroke-width="none" opacity="1" stroke="none"></path><path id="SvgjsPath5307" d="M65.638 169.283c1.181-1.646 5.237-7.272 8.601-12.561C75.227 162.179 73.413 165.416 65.638 169.283zM125.74 156.36c2.553 4.396 5.562 8.772 8.664 12.803C126 165.336 125.435 161.423 125.74 156.36z" fill="#18355f" stroke-width="none" opacity="1" stroke="none"></path><path id="SvgjsPath5308" d="M126.318 151.359c0.008-0.061 0.017-0.118 0.023-0.174 18.093 9.999 28.576 25.02 40.747 36.217 -0.448 0.721-1.228 1.193-1.687 1.905C152.656 179.609 146.599 164.946 126.318 151.359zM71.736 152.022c-15.034 8.213-36.242 33.357-38.318 35.269 0.448 0.724 0.691 0.577 1.15 1.288C47.314 178.882 50.793 169.283 71.736 152.022zM194.869 187.704c-1-0.799-24.646-10.039-42.59-14.969 33.698 16.299 45.587 18.545 51.471 24.321C203.367 196.057 202.586 187.489 194.869 187.704zM47.458 172.555c-13.524 3.914-30.839 10.098-42.975 15.491 -5.364 0.106-9.208 7.93-10.031 16.084C1.914 187.317-1.773 198.62 47.458 172.555z" fill="#4e688d" stroke-width="none" opacity="1" stroke="none"></path><path id="SvgjsPath5309" d="M206.6 210.062c-0.34-8.635-3.055-23.103-11.691-22.46 -0.714-0.61-20.822-9.767-42.285-15.611 -7.353-7.455-16.515-17.598-26.371-20.957 -0.711 6.428-1.477 10.622 0.216 12.714 2.241 2.439 4.93 4.879 7.568 6.522 4.616 6.136 8.139 9.778 8.139 9.778 -5.43 20.703-8.815 31.314-10.973 53.688H68.798c-2.157-22.373-5.543-32.984-10.973-53.688 0 0 3.522-3.643 8.139-9.778 2.639-1.644 5.327-4.083 7.568-6.522 1.692-2.092 0.927-6.286 0.216-12.714 -9.856 3.359-19.019 13.502-26.371 20.957 -21.463 5.845-41.571 15.001-42.285 15.611 -8.637-0.643-11.352 13.825-11.691 22.46 -0.411 10.487 1.435 24.938 1.585 25.938h210.029C205.165 234.999 207.011 220.549 206.6 210.062zM72.984 163.194c-2.258 2.233-3.658 3.181-6.473 5.282 4.829-6.271 4.341-5.433 7.708-11.229C74.37 159.739 73.433 162.751 72.984 163.194zM-3.172 234.028c-1.082-12.844-2.916-24.41 0.43-36.992 1.281-4.827 2.484-8.095 7.455-8.509 1.067 5.538 8.132 28.724 14.298 44.533 -6.226-24.192-5.311-18.81-8.219-28.452 -0.964-3.235-1.854-6.486-2.979-9.672 -0.783-2.214-1.65-4.387-2.262-6.653l40.433-14.865c-0.279 0.283-12.895 13.434-13.199 13.804 1.847 3.021 7.816 7.222 10.845 11.758 -12.436 1.174-18.508 3.173-23 3.84 0.331 0.919 9.061 25.353 9.976 27.656 -1.479-7.917-4.816-20.297-8.637-27.211 1.41-0.179 18.077-2.492 23.393-3.477 -1.476-2.854-8.043-8.437-11.559-12.619 20.646-18.162 25.422-27.402 39.593-35.454 0.15 1.509 0.443 3.011 0.55 4.519 -15.795 23.533-17.649 23.567-17.649 23.567 4.585 17.81 10.532 35.824 10.532 54.073L-3.172 234.028zM127.016 163.194c-0.448-0.443-1.386-3.455-1.235-5.947 3.367 5.797 2.879 4.958 7.708 11.229C130.674 166.375 129.273 165.428 127.016 163.194zM203.172 234.028l-70-0.154c0-18.249 5.947-36.264 10.532-54.073 0 0-1.854-0.034-17.649-23.567 0.106-1.508 0.399-3.01 0.55-4.519 14.171 8.052 18.946 17.292 39.593 35.454 -3.516 4.183-10.083 9.766-11.559 12.619 5.315 0.984 21.982 3.298 23.393 3.477 -3.82 6.914-7.157 19.294-8.637 27.211 0.915-2.304 9.645-26.737 9.976-27.656 -4.492-0.667-10.564-2.666-23-3.84 3.028-4.536 8.998-8.736 10.845-11.758 -0.305-0.37-12.92-13.521-13.199-13.804 0.001 0 40.433 14.865 40.433 14.865 -0.611 2.267-1.479 4.439-2.262 6.653 -1.125 3.186-2.015 6.437-2.979 9.672 -2.908 9.643-1.993 4.26-8.219 28.452 6.166-15.81 13.23-38.995 14.298-44.533 4.971 0.414 6.174 3.682 7.455 8.509C206.088 209.618 204.254 221.185 203.172 234.028z" fill="#0c2850" stroke-width="none" opacity="1" stroke="none"></path></g><g id="svga-group-head" transform="rotate(-1e-7 100 150)"><g id="svga-group-ears-left" transform="translate(3.0000001000000003 0)"><path id="SvgjsPath4998" d="M47.34 82.506c-1.378-2.405-9.403-6.675-11.855-6.501 -4.229 0.299-5.137 5.269-5.446 7.648 -0.609 4.696 0.645 10 1.485 13.201 0.687 2.615 2.874 7.578 4.214 9.883 1.197 2.062 4.145 5.792 5.733 7.525 1.398 1.529 4.73 4.311 7.248 3.632 2.769-0.744 6.015-3.945 6.239-5.312C56.165 105.172 50.926 88.763 47.34 82.506z" fill="#764630" stroke="#481c08" stroke-width="1.5" opacity="1"></path><path id="SvgjsPath4999" d="M42.903 99.38c-0.142-0.584 0.007-1.569 0.151-2.521 0.131-0.868 0.255-1.686 0.18-2.265 -0.284-2.169-1.888-6.29-2.936-8.524 -1.206-2.568-3.157-5.803-5.602-6.639 -1.011-0.346-2.073-0.522-2.145-0.241 -0.611 1.943-0.563 7.341-0.212 11.338 0.987 11.242 10.375 19.34 11.872 21.045 0.276 0.314 0.566 0.501 0.637 0.426 0.072-0.076-0.1-0.388-0.375-0.704 -1.477-1.692-8.314-8.684-9.27-13.098 -1.012-4.685 3-12.386 3.776-13.855 0.397 0.69 0.732 1.352 0.991 1.904 0.204 0.434 0.429 0.941 0.66 1.489 -0.456 0.767-3.656 6.36-2.489 10.836 0.431 1.651 2.379 3.778 3.67 4.362 0.71 0.321 0.978 0.801 1.287 1.355 0.359 0.645 0.765 1.374 1.946 1.903 0.24 0.108 0.457 0.151 0.649 0.151 0.333 0 0.586-0.135 0.773-0.295 0.019 0.282-0.349 2.52-0.357 2.853 -0.012 0.431 0.045 0.787 0.146 0.796 0.101 0.008 0.207-0.334 0.221-0.766 0.016-0.529 0.379-3.061 0.289-3.372 -0.264-0.923-1.073-1.964-1.93-3.068C43.994 101.407 43.122 100.284 42.903 99.38zM34.428 95.416c-2.316-7.184 1.456-13.479 1.977-14.464 0.906 0.826 1.704 1.932 2.354 3.015C38.286 84.83 34.526 90.584 34.428 95.416zM45.187 105.831c-1.069-0.479-1.427-1.12-1.774-1.742 -0.313-0.562-0.637-1.143-1.458-1.515 -0.179-0.082-0.375-0.204-0.576-0.346 -2.646-6.304 0.289-9.059 1.025-9.625 0.226 0.771 0.394 1.478 0.468 2.045 0.067 0.521-0.058 1.348-0.179 2.148 -0.149 0.992-0.305 2.018-0.144 2.681 0.239 0.989 1.137 2.146 2.005 3.263 0.771 0.993 1.562 2.015 1.832 2.849C46.271 105.757 45.905 106.155 45.187 105.831z" fill="#481c08" stroke-width="none" opacity="1"></path></g><g id="svga-group-ears-right" transform="translate(-3.0000001000000003 0)"><path id="SvgjsPath5000" d="M152.398 82.506c1.377-2.405 9.402-6.675 11.855-6.501 4.229 0.299 5.137 5.269 5.445 7.648 0.609 4.696-0.645 10-1.484 13.201 -0.688 2.615-2.875 7.578-4.215 9.883 -1.197 2.062-4.145 5.792-5.732 7.525 -1.398 1.529-4.73 4.311-7.248 3.632 -2.77-0.744-6.016-3.945-6.238-5.312C143.574 105.172 148.813 88.763 152.398 82.506z" fill="#764630" stroke="#481c08" stroke-width="1.5" opacity="1"></path><path id="SvgjsPath5001" d="M154.902 102.491c-0.855 1.104-1.666 2.146-1.93 3.068 -0.09 0.312 0.273 2.843 0.289 3.372 0.014 0.432 0.119 0.773 0.221 0.766 0.102-0.009 0.158-0.365 0.146-0.796 -0.01-0.333-0.377-2.57-0.357-2.853 0.188 0.16 0.439 0.295 0.771 0.295 0.193 0 0.41-0.043 0.65-0.151 1.182-0.53 1.588-1.259 1.945-1.903 0.311-0.555 0.578-1.034 1.287-1.355 1.291-0.584 3.24-2.711 3.67-4.362 1.168-4.476-2.031-10.07-2.488-10.836 0.23-0.548 0.457-1.056 0.66-1.489 0.26-0.552 0.594-1.214 0.99-1.904 0.777 1.469 4.789 9.17 3.777 13.855 -0.955 4.415-7.793 11.406-9.27 13.098 -0.275 0.316-0.447 0.628-0.375 0.704 0.072 0.075 0.361-0.111 0.637-0.426 1.498-1.705 10.885-9.803 11.873-21.045 0.35-3.997 0.396-9.395-0.213-11.338 -0.072-0.281-1.135-0.104-2.145 0.241 -2.445 0.836-4.396 4.071-5.604 6.639 -1.047 2.234-2.65 6.354-2.936 8.524 -0.076 0.579 0.049 1.397 0.18 2.265 0.145 0.951 0.293 1.936 0.15 2.521C156.617 100.284 155.744 101.407 154.902 102.491zM160.979 83.966c0.65-1.083 1.449-2.188 2.355-3.015 0.52 0.986 4.291 7.28 1.977 14.464C165.211 90.584 161.453 84.83 160.979 83.966zM153.352 105.59c0.271-0.834 1.063-1.856 1.832-2.849 0.869-1.118 1.766-2.274 2.006-3.263 0.16-0.663 0.006-1.689-0.145-2.681 -0.121-0.8-0.246-1.627-0.178-2.148 0.074-0.567 0.242-1.273 0.467-2.045 0.736 0.566 3.672 3.321 1.025 9.625 -0.201 0.142-0.396 0.264-0.576 0.346 -0.82 0.372-1.145 0.953-1.457 1.515 -0.348 0.622-0.705 1.263-1.775 1.742C153.834 106.155 153.467 105.757 153.352 105.59z" fill="#481c08" stroke-width="none" opacity="1"></path></g><g id="svga-group-faceshape-wrap" transform="matrix(0.9599996900000001 0 0 0.9997996900000001 3.9947912438160245 0.016298616113587627)"><g id="svga-group-faceshape-single" ><path id="SvgjsPath4881" d="M158.785 78.006l-0.005 0c-0.01 0.046-12.197 40.27-15.879 52.418 -0.715 2.358-1.931 4.551-3.556 6.386 -6.375 7.194-23.768 25.057-39.324 25.057 -15.849 0-33.591-19.045-39.708-26.214 -1.442-1.688-2.507-3.633-3.172-5.765 -3.607-11.551-16.126-51.648-16.137-51.694h-0.001c-1.298-4.992-1.994-10.231-2.002-15.634C38.949 28.536 66.155 0.92 99.773 0.867c33.621-0.053 60.913 27.476 60.964 61.499C160.746 67.769 160.068 73.01 158.785 78.006z" fill="#764630" stroke-width="none" opacity="1"></path><path id="SvgjsPath4882" d="M132.168 10.26c14.31 11.135 23.671 29.457 23.699 50.208 0.009 5.404-0.615 10.645-1.796 15.641l-0.004 0c-0.009 0.046-11.223 40.27-14.608 52.417 -0.658 2.358-1.776 4.551-3.271 6.385 -5.865 7.195-21.866 25.059-36.178 25.059 -14.582 0-30.904-19.047-36.531-26.215 -1.327-1.689-2.306-3.633-2.918-5.764 -3.318-11.552-14.836-51.649-14.846-51.695h-0.001c-1.194-4.992-1.834-10.231-1.842-15.634 -0.029-20.827 9.348-39.239 23.713-50.412C50.392 21.159 38.967 40.508 39.001 62.56c0.008 5.403 0.704 10.643 2.002 15.634h0.001c0.01 0.046 12.53 40.143 16.137 51.694 0.666 2.132 1.73 4.076 3.172 5.765 6.116 7.169 23.858 26.214 39.708 26.214 15.557 0 32.949-17.862 39.324-25.057 1.625-1.835 2.841-4.027 3.556-6.386 3.682-12.148 15.869-52.372 15.879-52.418l0.005 0c1.283-4.997 1.961-10.237 1.952-15.641C160.704 40.389 149.297 21.135 132.168 10.26z" fill="#6e3e27" stroke-width="none" opacity="1"></path><path id="SvgjsPath4883" d="M158.785 78.006l-0.005 0c-0.01 0.046-12.197 40.27-15.879 52.418 -0.715 2.358-1.931 4.551-3.556 6.386 -6.375 7.194-23.768 25.057-39.324 25.057 -15.849 0-33.591-19.045-39.708-26.214 -1.442-1.688-2.507-3.633-3.172-5.765 -3.607-11.551-16.126-51.648-16.137-51.694h-0.001c-1.298-4.992-1.994-10.231-2.002-15.634C38.949 28.536 66.155 0.92 99.773 0.867c33.621-0.053 60.913 27.476 60.964 61.499C160.746 67.769 160.068 73.01 158.785 78.006z" fill="none" stroke="#481c08" stroke-width="1.5" opacity="1"></path></g></g><g id="svga-group-mouth-single" ><path id="SvgjsPath4888" d="M100.2 142.947c-2.832 0.144-3.644-2.753-3.644-2.753s3.931 0.565 6.991-0.353C103.548 139.842 102.692 142.822 100.2 142.947z" fill="url(#SvgjsLinearGradient4889)" opacity="1"></path><path id="SvgjsPath4892" d="M100.488 140.76c-1.984 0.1-3.765-0.077-3.877-0.089 -0.138-0.014-0.238-0.136-0.224-0.272 0.015-0.138 0.143-0.233 0.274-0.224 0.041 0.003 4.096 0.405 6.738-0.337 0.131-0.032 0.271 0.041 0.309 0.174s-0.04 0.27-0.173 0.308C102.601 140.582 101.517 140.708 100.488 140.76z" fill="#481c08" stroke-width="none" opacity="1"></path><path id="SvgjsPath4893" d="M82.5 130.299c0 0 12.532 1.486 16.718 1.499 4.553 0.012 19.282-1.499 19.282-1.499 -4.258 3.534-8.943 6.932-19.555 6.999C89.453 137.359 87.021 133.912 82.5 130.299z" fill="#ffffff" stroke-width="none" opacity="1"></path><path id="SvgjsPath4894" d="M82.5 130.299c0 0 12.532 1.486 16.718 1.499 4.553 0.012 19.282-1.499 19.282-1.499 -4.258 3.534-8.943 6.932-19.555 6.999C89.453 137.359 87.021 133.912 82.5 130.299z" fill="none" stroke="#481c08" stroke-width="0.75" opacity="1"></path></g><g id="svga-group-eyes-left" ><g id="svga-group-eyesback-left"><path id="SvgjsPath5002" d="M61.752 82.523c-0.506-2.285 5.191-3.973 12.711-3.051 7.518 0.923 12.738 5.524 12.052 7.844 -0.38 1.286-10.639 3.245-14.253 2.847C68.598 89.758 62.974 88.04 61.752 82.523z" fill="url(#SvgjsRadialGradient5003)" opacity="1"></path></g><g id="svga-group-eyesiriswrapper-left" transform="translate(0.25 0.25)"><g id="svga-group-eyesiriscontrol-left" ><g id="svga-group-eyesiris-left" ><path id="SvgjsPath4246" d="M80 84c0 3.313-2.687 5.999-6 5.999S68 87.313 68 84c0-3.316 2.687-6.001 6-6.001S80 80.685 80 84z" fill="#4d3623" stroke-width="none" opacity="1"></path><path id="SvgjsPath4247" d="M70.512 86.805c0.875-0.072 0.1-0.306 0.1-0.306 -0.433-0.233-1.248-0.592-1.248-0.921 0-1.031 1.414-1.299-0.034-1.705 -1.504-1.38 1.167-1.352 1.147-1.398 -0.975-2.376 0.299-1.071 0.835-1.773 1.988-2.599 0.554 0.267 1.633 0 0.391-0.096-0.78-1.531 0.034-1.33 0.539 0.132 0.662 0.58 0.662 0.58 0.393-0.077 1.008-0.682 1.008-0.682 0.749 0.226 1.275 1.29 1.043 1.091 0.368-0.045 0.884-0.221 1.286-0.341 0 0 0.07-0.239 0.139-0.033 0.917 2.661 3.284 2.47 0.559 3.24 0 0-0.176 0 0.382 0.442 2.71 2.164-2.102 1.495 0.451 2.49 0.104-0.104-1.53 0.965-1.53 1.261 0 0.501-1.042 1.818-1.946 1.3 -0.504-0.288-0.581 0.6-0.877 0.19 -0.581-0.803-1.742-0.035-1.313-0.773 0.634-0.521-0.654 0.204-0.904 0.204 -0.828 0 1.083-2.783 3.894-0.715 0.822 0.602-0.864-1.433 0.625-1.433 0.149 0.049 0.104-0.521 0.104-0.682 -0.774-0.151 1.39-0.003 1.39-1.262 0.137 0.027 0.509-0.35-1.635 0 0 0-0.068-0.75-0.034-0.886 0.11-0.438 1.214-0.298 0.904-0.75 0-0.001-0.799-1.604-0.799-1.604 -2.573-0.414-1.102-0.672-2.711-0.341 -0.076 0.378-3.445 1.984-3.338 2.729 0.1 0.702 2.115 0.938 0.208 2.182C73.405 91.051 68.437 85.454 70.512 86.805z" fill="#5c4633" stroke-width="none" opacity="1"></path><path id="SvgjsPath4248" d="M74 78.749l0.171 4.393 1.837-3.993 -1.523 4.123 3.227-2.985 -2.985 3.226 4.124-1.523 -3.992 1.839 4.392 0.17 -4.392 0.17 3.992 1.839 -4.124-1.523 2.985 3.226 -3.227-2.985 1.523 4.123 -1.837-3.993L74 89.249l-0.171-4.393 -1.838 3.993 1.522-4.123 -3.226 2.985 2.985-3.226 -4.124 1.523 3.992-1.839 -4.39-0.17 4.39-0.17 -3.992-1.839 4.124 1.523 -2.985-3.226 3.226 2.985 -1.522-4.123 1.838 3.993L74 78.749z" fill="#2e1b0c" stroke-width="none" opacity="1"></path><path id="SvgjsPath4249" d="M74.796 80.067l-0.539 3.315 1.981-2.711 -1.766 2.857 2.87-1.748 -2.725 1.964 3.319-0.515L74.668 84l3.266 0.794 -3.317-0.538 2.712 1.982 -2.858-1.765 1.748 2.869 -1.964-2.725 0.516 3.319 -0.771-3.27 -0.795 3.264 0.539-3.315 -1.984 2.711 1.768-2.857 -2.869 1.748 2.725-1.964 -3.319 0.516 3.269-0.771 -3.264-0.793 3.315 0.537 -2.712-1.982 2.858 1.765 -1.747-2.869 1.964 2.725 -0.516-3.318 0.772 3.27L74.796 80.067z" fill="#1f1105" stroke-width="none" opacity="1"></path><path id="SvgjsPath4250" d="M76.25 84c0 1.243-1.008 2.25-2.25 2.25s-2.25-1.007-2.25-2.25 1.008-2.25 2.25-2.25S76.25 82.757 76.25 84z" fill="#000000" stroke-width="none" opacity="0.9"></path><path id="SvgjsPath4251" d="M71.637 88.311c-0.331 0.332-0.985 0.215-1.46-0.261 -0.476-0.475-0.593-1.129-0.261-1.461 0.331-0.331 0.985-0.214 1.46 0.261C71.852 87.326 71.969 87.979 71.637 88.311z" fill="#ffffff" stroke-width="none" opacity="0.7"></path><path id="SvgjsPath4252" d="M78.806 82.818c-0.496 0.496-1.697 0.1-2.682-0.886 -0.986-0.986-1.382-2.187-0.886-2.683 0.496-0.496 1.697-0.1 2.682 0.886C78.906 81.122 79.302 82.322 78.806 82.818z" fill="#ffffff" stroke-width="none" opacity="0.9"></path></g></g></g><g id="svga-group-eyesfront-left"><path id="SvgjsPath5024" d="M53.294 83c0.809 10.899 11.637 23.583 20.506 22.236 10.498 0.106 20.864-7.868 20.864-22.305s-5.087-26.528-21.127-26.528C62.037 56.402 53.294 68.563 53.294 83zM61.752 82.523c-0.506-2.285 5.191-3.973 12.711-3.051 7.518 0.923 12.738 5.524 12.052 7.844 -0.38 1.286-10.639 3.245-14.253 2.847C68.598 89.758 62.974 88.04 61.752 82.523z" fill="#764630" stroke-width="none" opacity="1"></path><path id="SvgjsPath5025" d="M72.262 90.163c3.614 0.398 13.873-1.561 14.253-2.847 0.687-2.32-4.534-6.921-12.052-7.844C68.003 78.68 62.9 79.816 61.907 81.6c0.898-6.4 7.7-11.397 15.987-11.434 8.911-0.037 16.148 5.676 16.172 12.765 0.021 7.088-7.185 12.862-16.095 12.902 -8.913 0.037-16.149-5.676-16.173-12.764 0-0.105 0.016-0.208 0.019-0.313C63.147 88.083 68.651 89.764 72.262 90.163z" fill="url(#SvgjsRadialGradient5026)" opacity="1"></path><path id="SvgjsPath5030" d="M61.752 82.523c-0.506-2.285 5.191-3.973 12.711-3.051 7.518 0.923 12.738 5.524 12.052 7.844 -0.38 1.286-10.639 3.245-14.253 2.847C68.598 89.758 62.974 88.04 61.752 82.523z" fill="url(#SvgjsRadialGradient5031)" opacity="1"></path><path id="SvgjsPath5034" d="M62.148 77.417c4.208-1.978 9.35-2.16 13.838-1.005 2.404 0.561 4.965 1.285 7.063 2.638 1.945 1.135 3.525 2.5 5.002 4.19 -1.342-1.701-2.773-3.118-4.623-4.27 -2.276-1.416-4.769-2.294-7.364-2.916C71.478 74.928 66.342 75.184 62.148 77.417z" fill="#481c08" stroke-width="none" opacity="1"></path><path id="SvgjsPath5035" d="M62.769 78.02c0.88-0.352 4.065-1 5.456-1.066 1.687-0.082 5.073 0.125 6.735 0.424 3.374 0.608 9.251 2.483 11.678 7.184 0.746 1.445 0.074 2.456-0.123 2.675 0.3-2.426-4.838-6.746-12.052-7.604 -7.52-0.894-13.217 0.743-12.711 2.958 1.222 5.348 6.846 7.013 10.51 7.405 4.099 0.439 11.684-1.539 12.686-1.753 -1.999 1.009-7.524 2.095-9.767 2.303 -0.744 0.07-2.24 0.104-2.986 0.085 -5.949-0.158-10.169-3.175-11.729-7.26C59.464 80.745 60.56 78.902 62.769 78.02z" fill="#000000" stroke-width="none" opacity="1"></path></g></g><g id="svga-group-eyes-right" ><g id="svga-group-eyesback-right"><path id="SvgjsPath5009" d="M137.849 82.523c0.506-2.285-5.191-3.973-12.711-3.051 -7.518 0.923-12.738 5.524-12.052 7.844 0.38 1.286 10.639 3.245 14.253 2.847C131.003 89.758 136.627 88.04 137.849 82.523z" fill="url(#SvgjsRadialGradient5010)" opacity="1"></path></g><g id="svga-group-eyesiriswrapper-right" transform="translate(-0.25 0.25)"><g id="svga-group-eyesiriscontrol-right" ><g id="svga-group-eyesiris-right" ><path id="SvgjsPath4253" d="M132,83.999c0,3.316-2.684,6-6,6s-6-2.684-6-6s2.684-6,6-6S132,80.683,132,83.999z" fill="#4d3623" stroke-width="none" opacity="1"></path><path id="SvgjsPath4254" d="M122.508 86.806c0.879-0.076 0.105-0.305 0.105-0.305 -0.434-0.234-1.254-0.592-1.254-0.926 0-1.031 1.418-1.295-0.023-1.705 -1.512-1.377 1.16-1.348 1.137-1.395 -0.973-2.379 0.305-1.072 0.844-1.775 1.98-2.596 0.551 0.27 1.629 0 0.387-0.094-0.785-1.529 0.035-1.33 0.539 0.135 0.656 0.58 0.656 0.58 0.398-0.076 1.008-0.68 1.008-0.68 0.75 0.223 1.277 1.289 1.043 1.09 0.375-0.047 0.891-0.223 1.289-0.34 0 0 0.07-0.24 0.141-0.035 0.914 2.66 3.281 2.473 0.563 3.24 0 0-0.176 0 0.375 0.439 2.707 2.168-2.098 1.494 0.457 2.49 0.105-0.1-1.535 0.967-1.535 1.266 0 0.498-1.043 1.816-1.945 1.295 -0.504-0.287-0.586 0.604-0.879 0.193 -0.574-0.803-1.746-0.035-1.313-0.773 0.633-0.521-0.656 0.205-0.902 0.205 -0.832 0 1.078-2.783 3.891-0.715 0.82 0.598-0.867-1.436 0.633-1.436 0.141 0.047 0.105-0.521 0.105-0.68 -0.785-0.152 1.383-0.006 1.383-1.266 0.141 0.029 0.516-0.346-1.629 0 0 0-0.07-0.75-0.035-0.885 0.105-0.439 1.207-0.299 0.902-0.75l-0.797-1.605c-2.578-0.41-1.102-0.668-2.719-0.34 -0.07 0.381-3.445 1.986-3.34 2.73 0.105 0.703 2.121 0.938 0.211 2.18C125.402 91.054 120.434 85.452 122.508 86.806z" fill="#5c4633" stroke-width="none" opacity="1"></path><path id="SvgjsPath4255" d="M126 78.749l0.176 4.395 1.828-3.996 -1.523 4.125 3.234-2.988 -2.988 3.229 4.125-1.523 -3.996 1.84 4.395 0.17 -4.395 0.17 3.996 1.84 -4.125-1.523 2.988 3.229 -3.234-2.988 1.523 4.125 -1.828-3.996L126 89.249l-0.176-4.395 -1.84 3.996 1.523-4.125 -3.223 2.988 2.988-3.229 -4.125 1.523 3.996-1.84 -4.395-0.17 4.395-0.17 -3.996-1.84 4.125 1.523 -2.988-3.229 3.223 2.988 -1.523-4.125 1.84 3.996L126 78.749z" fill="#2e1b0c" stroke-width="none" opacity="1"></path><path id="SvgjsPath4256" d="M126.797 80.067l-0.539 3.316 1.98-2.713 -1.77 2.859 2.871-1.752 -2.719 1.969 3.316-0.516 -3.27 0.768 3.27 0.797 -3.316-0.539 2.707 1.98 -2.859-1.764 1.746 2.871 -1.957-2.725 0.516 3.316L126 84.667l-0.797 3.264 0.539-3.316 -1.98 2.713 1.77-2.859 -2.871 1.752 2.719-1.969 -3.316 0.516 3.27-0.768 -3.27-0.797 3.316 0.539 -2.707-1.98 2.859 1.764 -1.746-2.871 1.957 2.725 -0.516-3.316 0.773 3.27L126.797 80.067z" fill="#1f1105" stroke-width="none" opacity="1"></path><path id="SvgjsPath4257" d="M128.25 83.999c0 1.242-1.008 2.25-2.25 2.25s-2.25-1.008-2.25-2.25 1.008-2.25 2.25-2.25S128.25 82.757 128.25 83.999z" fill="#000000" stroke-width="none" opacity="0.9"></path><path id="SvgjsPath4258" d="M123.633 88.312c-0.328 0.328-0.984 0.217-1.453-0.264 -0.48-0.475-0.598-1.125-0.258-1.459 0.328-0.328 0.984-0.211 1.453 0.264C123.855 87.327 123.973 87.978 123.633 88.312z" fill="#ffffff" stroke-width="none" opacity="0.7"></path><path id="SvgjsPath4259" d="M130.805 82.815c-0.492 0.498-1.699 0.105-2.684-0.885 -0.984-0.984-1.383-2.186-0.879-2.678 0.492-0.498 1.688-0.105 2.672 0.885C130.91 81.122 131.297 82.323 130.805 82.815z" fill="#ffffff" stroke-width="none" opacity="0.9"></path></g></g></g><g id="svga-group-eyesfront-right"><path id="SvgjsPath5044" d="M126.063 56.402c-16.04 0-21.127 12.091-21.127 26.528s10.366 22.412 20.864 22.305c8.869 1.347 19.697-11.337 20.506-22.236C146.307 68.563 137.563 56.402 126.063 56.402zM127.339 90.163c-3.614 0.398-13.873-1.561-14.253-2.847 -0.687-2.32 4.534-6.921 12.052-7.844 7.52-0.922 13.217 0.767 12.711 3.051C136.627 88.04 131.003 89.758 127.339 90.163z" fill="#764630" stroke-width="none" opacity="1"></path><path id="SvgjsPath5045" d="M127.339 90.163c-3.614 0.398-13.873-1.561-14.253-2.847 -0.687-2.32 4.534-6.921 12.052-7.844 6.46-0.792 11.563 0.345 12.556 2.128 -0.898-6.4-7.7-11.397-15.987-11.434 -8.911-0.037-16.148 5.676-16.172 12.765 -0.021 7.088 7.185 12.862 16.095 12.902 8.913 0.037 16.149-5.676 16.173-12.764 0-0.105-0.016-0.208-0.019-0.313C136.453 88.083 130.949 89.764 127.339 90.163z" fill="url(#SvgjsRadialGradient5046)" opacity="1"></path><path id="SvgjsPath5050" d="M137.849 82.523c0.506-2.285-5.191-3.973-12.711-3.051 -7.518 0.923-12.738 5.524-12.052 7.844 0.38 1.286 10.639 3.245 14.253 2.847C131.003 89.758 136.627 88.04 137.849 82.523z" fill="url(#SvgjsRadialGradient5051)" opacity="1"></path><path id="SvgjsPath5054" d="M137.452 77.417c-4.208-1.978-9.35-2.16-13.838-1.005 -2.404 0.561-4.965 1.285-7.063 2.638 -1.945 1.135-3.525 2.5-5.002 4.19 1.342-1.701 2.773-3.118 4.623-4.27 2.276-1.416 4.769-2.294 7.364-2.916C128.123 74.928 133.259 75.184 137.452 77.417z" fill="#481c08" stroke-width="none" opacity="1"></path><path id="SvgjsPath5055" d="M136.832 78.02c-0.88-0.352-4.065-1-5.456-1.066 -1.687-0.082-5.073 0.125-6.735 0.424 -3.374 0.608-9.251 2.483-11.678 7.184 -0.746 1.445-0.074 2.456 0.123 2.675 -0.3-2.426 4.838-6.746 12.052-7.604 7.52-0.894 13.217 0.743 12.711 2.958 -1.222 5.348-6.846 7.013-10.51 7.405 -4.099 0.439-11.684-1.539-12.686-1.753 1.999 1.009 7.524 2.095 9.767 2.303 0.744 0.07 2.24 0.104 2.986 0.085 5.949-0.158 10.169-3.175 11.729-7.26C140.137 80.745 139.041 78.902 136.832 78.02z" fill="#000000" stroke-width="none" opacity="1"></path></g></g><g id="svga-group-facehighlight-single" ><path id="SvgjsPath2885" d="M141 113.974c0.035 22.622-18.292 40.994-40.938 41.025 -22.642 0.037-41.028-18.273-41.063-40.9 -0.035-22.62 18.292-41.064 40.937-41.1C122.579 72.964 140.967 91.349 141 113.974z" fill="url(#SvgjsRadialGradient2886)" opacity="1"></path><path id="SvgjsPath2889" d="M137.5 53.999c0 20.711-16.789 37.5-37.499 37.5 -20.711 0-37.501-16.789-37.501-37.5s16.79-37.5 37.501-37.5C120.711 16.499 137.5 33.288 137.5 53.999z" fill="url(#SvgjsRadialGradient2890)" opacity="1"></path></g><g id="svga-group-eyebrows-left" transform="matrix(1.0500001 0 0 1.0500001 -3.6600012546192175 -3.308530924558383) rotate(7.500000200000001 73.19987869262695 66.17048615019532) translate(0 -4.0000003)"><path id="SvgjsPath4244" d="M52.488 73.87c7.475-9.383 20.338-7.822 30.878-6.314 2.681 0.384 5.441 0.672 8.07 1.336 1.884 0.475 3.365 2.622 1.851 4.356 -0.708 0.825-2.253 0.672-3.207 0.652C77.459 73.645 63.193 66.387 52.488 73.87z" fill="#080806" stroke-width="none" opacity="1"></path></g><g id="svga-group-eyebrows-right" transform="matrix(1.0500001 0 0 1.0500001 -6.341837596674736 -3.316382731643813) rotate(-7.5 126.83649826049805 66.32752197783203) translate(0 -4.0000003)"><path id="SvgjsPath4245" d="M147.577 73.49c-2.164-1.448-4.454-2.47-7.043-2.889 -9.497-1.54-27.586 4.79-32.341 3.45 -2.912-0.822-2.323-3.739-1.035-4.458 0.775-0.433 0.99-0.422 7.909-1.612C126.824 65.961 139.988 64.355 147.577 73.49z" fill="#080806" stroke-width="none" opacity="1"></path></g><g id="svga-group-nose-single" transform="matrix(1.1000003100000002 0 0 1.1000003100000002 -9.974008961934487 -10.076173326401829) translate(0 -4.0000003)"><path id="SvgjsPath4895" d="M96.831 88.524c0 0-1.399 11.117-2.026 13.281 -1.379 4.752-6.168 11.417-5.239 14.429 1.859 6.022 7.537 4.493 10.524 4.471 2.763-0.022 8.072 1.552 9.162-2.37 0.352-1.266-0.441-4.466-0.441-4.466s-2.644 3.112-8.875 2.767c-1.778-0.099-4.671-2.096-4.704-4.912 -0.043-3.817 1.802-7.035 2.205-10.824C97.741 98.022 96.831 88.524 96.831 88.524z" fill="#673620" stroke-width="none" opacity="1"></path><path id="SvgjsPath4896" d="M105.194 118.969c1.075 0 1.366 0.326 1.366 0.729 0 0.404-0.335 1.026-1.366 0.73 -1.134-0.323-3.113-0.175-3.113-0.175S104.117 118.969 105.194 118.969zM94.922 118.969c-1.077 0.001-1.366 0.328-1.366 0.733 -0.001 0.403 0.323 0.983 1.366 0.729 1.15-0.282 3.112-0.175 3.112-0.175S95.999 118.973 94.922 118.969zM108.81 113.869c0 0 1.489 1.933 1.18 3.975 -0.301 1.983-3.31 2.861-3.31 2.861s2.089-1.516 2.342-3.356C109.14 116.486 108.81 113.869 108.81 113.869zM90.427 111.883c0 0-1.086 2.704-0.772 4.352 0.571 2.976 3.704 4.164 3.704 4.164s-1.955-2.039-2.65-3.842C89.948 114.587 90.427 111.883 90.427 111.883z" fill="#481c08" stroke-width="none" opacity="1"></path><path id="SvgjsPath4897" d="M105.141 115.311c1.043-0.889 1.148-1.396 0.932-1.729 -0.215-0.334-0.841-0.545-1.714 0.528 -0.963 1.18-3.056 2.054-3.056 2.054S104.098 116.198 105.141 115.311z" fill="#855844" stroke-width="none" opacity="1"></path></g><g id="svga-group-beardwrap" transform="matrix(0.9599996900000001 0 0 0.9997996900000001 3.9800309975890684 0.02522071343054222)"><g id="svga-group-beard-single" transform="matrix(0.99999989 0 0 0.99999989 0.00001094500041176616 0.000014509925023276082) translate(-0.5000001 2.0000003)"><path id="SvgjsPath5057" d="M150.78 88.74c-3.07 1.75-5.3 2.95-7.16 4.25 -11.33 7.55-12.48 25.22-14.44 41.87 -5.95-10.49-5.03-12.28-12.86-13.87 -9.61-2.1-12.81-3.02-16.32 1.62 -2.72-2.76-3.71-4.23-10.28-2.8 -11.7 2.31-12.28 2.01-15.77 9.5 -0.25 0.59-2.83 4.99-3.13 5.56 -0.57-3.98 0.05-4.11-1.58-12.88 -1.72-9.07-2.45-16.22-6.94-23.31 -4.34-6.03-13.78-10.55-18.4-12.1 0 7.61 0.73 18.98 0.87 20.44 1.75 17.86 8.72 45.74 21.16 57.45 10.4 9.39 21.98 8.75 34.11 8.75 6.25 0 18.06 0.43 25.25-3.06 9.77-3.78 16.54-14.45 20.4-24.19 6.72-16.43 10.41-32.87 10.41-59.39C152.55 87.92 151.86 88.07 150.78 88.74zM103.99 148.16c0.12-0.69 0.49-1.7 0.64-1.97 1.06-2.25 5.94-8.9 6.51-9.39 -6.47 1.93-14.08 2.15-22.05 0.27 1.9 2.27 6.39 8.14 6.92 11.09 -7.06-3.07-16.31-4.46-15.35-12.04 0.51-5.54 6.87-5.79 11.06-6.06 16.78-0.32 26.91-1.16 27.63 6.06C120.26 143.68 111.18 145.1 103.99 148.16z" fill="#080806" stroke-width="none" opacity="1"></path><path id="SvgjsPath5058" d="M156.1 86.58c0 26.52-3.69 42.96-10.41 59.39 -3.86 9.74-10.63 20.41-20.4 24.19 -7.19 3.49-19 3.06-25.25 3.06 -12.13 0-23.71 0.64-34.11-8.75 -12.44-11.71-19.41-39.59-21.16-57.45 -0.14-1.47-0.87-12.83-0.87-20.44 0.99 0.33 2.21 0.81 3.54 1.4C54.06 117.85 55.74 159.26 89 171c-1-2-4-6-4-6s6 4 9 6c0-1-0.98-4.88-0.98-4.88s4.78 3.43 7.78 4.43c0-1-1-4.08-1-4.08l5.23 3.45L113 163c0 0-2.5 5.25-3.5 7.25 3.6-0.97 9.48-5.3 9.48-5.3S118 168 118 169c29.21-16.43 29.26-51.2 33.61-80.71C152.42 87.91 153.48 87.57 156.1 86.58zM89.09 137.07c0.28 0.33 0.61 0.74 0.98 1.21 6.41 4.06 13.67 3.89 19.81 0.08 0.63-0.83 1.11-1.43 1.27-1.56C104.67 138.73 97.05 138.94 89.09 137.07zM100.74 167.83c-0.4-0.75-0.96-1.72-1.12-2.56 0-0.01-0.3-1.24-0.3-1.24 -0.02-0.09-0.38-2.55-0.31-2.55 -0.05-1.35-0.24-3.13-0.34-4.14C97.9 164.14 98.98 165.77 100.74 167.83zM104.36 142.34c-0.01 0 0.01 0.1-0.03 0.27 -0.31 1.44-2.68 4.35-2.9 6.13C101.35 145.78 104.21 143.34 104.36 142.34zM125.13 138.74c1.42 3.26 0.28 5.54-1.25 8.75C125.13 142.96 125.8 141.82 125.13 138.74zM119.63 128.99c1.45 2.19 1.98 2.59 3.75 9.25C121.73 134.59 121.56 133.57 119.63 128.99zM121.13 126.24c1.98 1.63 3.34 3.11 4.75 8.5C124.09 130.74 122.9 128.39 121.13 126.24zM103.88 164.74c0.55-5.94 2.31-9.27 6.25-13.75C107.23 155.53 105.38 159.63 103.88 164.74zM110.13 162.49c2.13-3.31 4.46-8.56 8.75-9.75 -1.54 0.74-2.28 1.58-3.68 3.27 0 0-0.76 0.89-1.88 2.54C112.52 159.71 111.13 161.5 110.13 162.49zM114.38 166.74c2.42-3.78 2.26-4.91 4.75-7.25C116.81 162.7 116.96 164.13 114.38 166.74zM112.63 154.49c1.26-4.02 3.23-7.66 7.25-9.75C116.83 147.09 114.47 151.09 112.63 154.49zM102.38 157.22c-0.96-2.91-0.36-5.47 0.25-8.49C102.46 152.63 102.01 154.66 102.38 157.22zM131.88 152.24c-2.85 3.86-5.51 5.68-9 7C126.17 157.3 127.59 156.02 131.88 152.24zM136.13 140.49c-1.54 7.31-7.2 11.9-13.75 15.5 6.9-5.64 9.47-8.88 9.47-8.88C133.28 145.49 135.05 143 136.13 140.49zM130.13 146.74c-0.05-6.28 1.03-10.04 4.5-15.5C132.47 136.59 130.94 142.19 130.13 146.74zM142.38 120.99c-0.05 2.66 0.02 7.63-7 17.25 0.02-0.05 4.82-10.56 4.76-10.56C141.49 124.53 141.83 123.29 142.38 120.99zM134.63 126.24c-0.15-5.53 1.26-6.58 3.5-12.75C137 119.35 135.56 120.36 134.63 126.24zM146.63 100.99c-1.17 6.98-2.54 8.72-7.25 19C141.37 111.46 143.46 109.24 146.63 100.99zM76.12 147.49c-1.61-3.29-2.62-5.37-1.25-8.75 -0.26 1.18-0.48 1.72 0.01 4.41C74.88 143.16 76.12 147.49 76.12 147.49zM76.62 138.24c1.5-6.29 2.77-7.73 3.75-9.25C77.74 135.05 78.98 133.17 76.62 138.24zM74.12 134.74c1.15-4.74 2.51-6.57 4.75-8.5C76.81 128.67 75.73 131.28 74.12 134.74zM89.87 150.99c4.37 4.74 5.65 8.51 6.25 13.75C94.7 159.56 92.88 155.95 89.87 150.99zM81.12 152.74c1.43 0.38 2.72 1.05 4.19 2.84 0 0 1.31 1.42 3.61 5.37 0.51 0.89 0.95 1.54 0.95 1.54 -1.29-1.32-5.1-6.47-5.08-6.47C82.99 153.87 82.42 153.38 81.12 152.74zM79.87 159.49c2.72 2.57 2.46 3.8 4.75 7.25C82.12 164.22 82.09 162.58 79.87 159.49zM80.12 144.74c1.89 0.97 3.04 1.99 3.71 2.93 0 0 0.46 0.6 0.89 1.21 1.53 2.38 1.84 3.1 2.65 5.61 -0.73-1.37-1.12-2.13-3.16-5.26 -0.43-0.59-0.87-1.17-0.87-1.17C82.13 146.38 81.03 145.44 80.12 144.74zM97.37 148.74c0.67 3.47 0.41 4.42-0.25 6.5C97.51 152.79 97.48 153.09 97.37 148.74zM96.87 142.74c1 0.7 2.15 1.68 2.88 3.9 0 0 1.34 3.22 0.37 7.88C100.19 153.04 99.97 146.06 96.87 142.74zM77.12 159.24c-3.87-1.31-6.51-3.75-9-7C71.41 155.21 73.53 157.08 77.12 159.24zM77.62 155.99c-6.51-3.61-12.1-8.05-13.75-15.5 0.94 2.24 2.1 4.23 4.27 6.63C68.14 147.12 70.84 150.26 77.62 155.99zM65.37 131.24c3.01 4.73 4.56 8.58 4.5 15.5C68.98 141.75 67.37 136.19 65.37 131.24zM64.62 138.24c-3.86-5.17-6.82-10.71-7-17.25C58.87 126.52 61.02 130.04 64.62 138.24zM61.87 113.49c2.42 6.51 3.65 7.56 3.5 12.75C64.61 120.55 63 119.8 61.87 113.49zM60.62 119.99c-3.79-8.25-5.96-11.29-7.25-19C56.88 110.14 58.73 111.91 60.62 119.99z" fill="#000000" stroke-width="none" opacity="1"></path><path id="SvgjsPath5059" d="M150.78 88.74c-3.07 1.75-5.3 2.95-7.16 4.25 -11.33 7.55-12.48 25.22-14.44 41.87 -5.95-10.49-5.03-12.28-12.86-13.87 -9.61-2.1-12.81-3.02-16.32 1.62 -2.72-2.76-3.71-4.23-10.28-2.8 -11.7 2.31-12.28 2.01-15.77 9.5 -0.25 0.59-2.83 4.99-3.13 5.56 -0.57-3.98 0.05-4.11-1.58-12.88 -1.72-9.07-2.45-16.22-6.94-23.31 -4.34-6.03-13.78-10.55-18.4-12.1 0 7.61 0.73 18.98 0.87 20.44 1.75 17.86 8.72 45.74 21.16 57.45 10.4 9.39 21.98 8.75 34.11 8.75 6.25 0 18.06 0.43 25.25-3.06 9.77-3.78 16.54-14.45 20.4-24.19 6.72-16.43 10.41-32.87 10.41-59.39C152.55 87.92 151.86 88.07 150.78 88.74zM136.74 159.03c-4.76 7.25-15.49 12.01-19.96 12.27 -1.55 0.17-8.89 1.47-25.86 0.75 -2.92-0.02-11.3-0.88-15.65-3.16 -16.93-7.07-24.7-35.57-28.17-53.69 -1.03-4.85-2.33-17.53-2.92-28.23 6.64 2.9 14.69 7.96 18.37 14.49 3.19 6.11 3.94 13.31 5.68 20.81 2.21 9.72 1.11 6.72 2.35 13.05 0.04 0.16 0.07 0.32 0.11 0.47 9.23-14.36 4.63-12.18 19.2-15.18 4.51-1.1 7-1.32 10.11 2.4 3.87-4.58 6.28-3.27 16.14-1.2 7.81 1.73 5.93 2.91 12.33 12.65 0.25 0.38 0.76 1.19 0.84 1.34 0.57-2.28 0.85-5.97 1.5-9.47 0.19-1 3.43-16.39 4.59-19.86 3.05-9.63 7.85-12.19 15.67-17.21 1.03-0.73 1.96-1.02 4.76-2.3C154.39 110.33 150.55 139.83 136.74 159.03zM110.01 129.33c-4.89-0.08-5.82 0.4-18.27-0.03 -3.78 0.06-7.55 0.12-9.99 2.5 -2.92 2.67-4.44 10.55 5.77 14.03 3.29 1.04 8.14 2.54 8.94 2.88 0-3.24-5.72-10.27-6.63-11.3 9.19 2.3 17.44 1 20.59-0.27 -1.4 1.52-6.88 8.4-6.88 11.57 8.75-2.92 13.75-3.65 15.99-8.13C121.65 136.73 120.54 129.16 110.01 129.33zM103.99 148.16c0.12-0.69 0.49-1.7 0.64-1.97 1.06-2.25 5.94-8.9 6.51-9.39 -6.47 1.93-14.08 2.15-22.05 0.27 1.9 2.27 6.39 8.14 6.92 11.09 -7.06-3.07-16.31-4.46-15.35-12.04 0.51-5.54 6.87-5.79 11.06-6.06 16.78-0.32 26.91-1.16 27.63 6.06C120.26 143.68 111.18 145.1 103.99 148.16z" fill="#000000" stroke-width="none" opacity="1"></path></g></g><g id="svga-group-mustache-single" ><path id="SvgjsPath3098" d="M100,18.13L100,18.13L100,18.13L100,18.13z" fill="#2a232b" stroke-width="none" opacity="1"></path></g><g id="svga-group-hair-front" transform="matrix(0.9599996900000001 0 0 0.9997996900000001 4.000032678479798 0.009130416187190349)"><path id="SvgjsPath3057" d="M158.43 41.325C140-4.765 100 0.405 100 0.405s-40-5.169-58.43 40.92c-9.245 23.12 2.158 50.324 2.158 50.324h5.826c-5.094-21.752 0.796-17.662 1.176-21.722 0.118-1.255-0.3-3.367-0.421-4.622 -0.592-6.112 1.982-18.029 5.245-23.173 1.603-2.526 5.369-6.659 8.174-7.699 9.97-3.694 20.044 0.715 22.854 1.421 4.461 1.12 22.373 1.12 26.836 0 3.343-0.839 13.182-4.905 22.854-1.321 2.806 1.04 6.871 4.972 8.474 7.499 3.263 5.144 5.537 16.16 4.945 22.272 -0.121 1.255-0.539 4.367-0.422 5.623 0.107 1.147 2.617 3.689 2.898 4.807 1.16 4.612-1.722 16.915-1.722 16.915h5.825C156.271 91.649 167.676 64.445 158.43 41.325z" fill="#080806" stroke-width="none" opacity="1" stroke="none"></path><path id="SvgjsPath3058" d="M154.938 31.163C136.178-3.114 101.979-0.631 100-0.455c-1.979-0.176-36.177-2.659-54.938 31.618C30.57 57.641 41.57 88.137 42.907 91.612c0.076 0.197 1.576 0.038 1.576 0.038 -0.006-0.015-0.104-0.392-0.166-0.55 -1.209-3.12-12.189-33.18 2.061-59.216C65.111-2.342 99.595 1.007 99.94 1.046L100 0.504l0.06 0.542c0.345-0.039 34.829-3.388 53.563 30.837 14.563 26.61 2.773 57.423 1.996 59.383 -0.021 0.055-0.107 0.375-0.111 0.383 0 0 1.506 0.169 1.575-0.011C158.374 88.294 169.467 57.709 154.938 31.163z" fill="#000000" stroke-width="none" opacity="1" stroke="none"></path></g><g id="svga-group-glasses-single" transform="matrix(0.89999969 0 0 0.89999969 10.002032196389237 8.601379727314608) translate(0 -1.0000000005838672e-7)"><path id="SvgjsPath4240" d="M148.02 85.54c-0.11 1.96-0.35 4.05-0.59 6.25 -1.04 9.74-5.26 12.49-24.57 11.1 -6.3-0.45-11.06-4.04-13.41-10.1 -0.99-2.55-1.87-5.52-2.37-8.48C116.7 77.81 139.4 77.62 148.02 85.54zM51.98 85.54c0.11 1.96 0.35 4.05 0.59 6.25 1.04 9.74 5.26 12.49 24.57 11.1 6.3-0.45 11.06-4.04 13.41-10.1 0.99-2.55 1.87-5.52 2.37-8.48C83.3 77.81 60.6 77.62 51.98 85.54z" fill="#ffffff" stroke-width="none" opacity="0.2"></path><path id="SvgjsPath4241" d="M148.02 85.54c-8.62-7.92-31.33-7.73-40.93-1.23 -0.36-2.11-0.52-4.22-0.36-6.16h0c0.66-7.81 13.45-6.88 20.98-7.17C146.33 70.26 148.56 76.34 148.02 85.54zM93.27 78.14L93.27 78.14c-0.66-7.81-13.45-6.88-20.99-7.17 -18.61-0.71-20.85 5.37-20.31 14.56 8.62-7.92 31.33-7.73 40.93-1.23C93.26 82.19 93.43 80.09 93.27 78.14z" fill="#ffffff" stroke-width="none" opacity="0.4"></path><path id="SvgjsPath4242" d="M149.91 75.08c-0.62-1.42-1.48-2.7-2.56-3.65 -2.47-2.16-7.08-2.46-11.39-2.71 -4.19-0.23-12.15-0.42-17.46-0.08 -13.8 0.9-13.57 7-13.57 7 -1.81 0-8.03 0-9.84 0 0 0 0.23-6.11-13.57-7 -5.32-0.34-13.27-0.16-17.46 0.08 -4.31 0.24-8.93 0.55-11.39 2.71 -1.09 0.95-1.94 2.22-2.56 3.65l-8.19-1.58v3.99c7.17 1.38 9.02 1.82 10.02 1.76 -0.25 3.01-0.36 8.35 0.29 12.59 1.54 10.07 5.78 12.78 24.94 11.4 6.36-0.46 11.35-4.23 13.72-10.33 1.86-4.8 3.14-9.09 2.81-14.28h12.64c-0.33 5.19 0.95 9.49 2.81 14.28 2.36 6.1 7.36 9.87 13.72 10.33 19.17 1.38 23.41-1.33 24.94-11.4 0.65-4.24 0.54-9.58 0.29-12.59 1 0.06 2.85-0.38 10.02-1.76V73.5L149.91 75.08zM90.07 92.61c-2.27 5.87-6.88 9.35-12.98 9.78 -19.08 1.37-22.61-1.33-24.04-10.68 -0.76-5.01-0.35-11.52-0.25-12.52 0.19-0.03 0.31-0.06 0.32-0.1 1.09-6.36 6.45-8.42 29.02-7.35 3.73 0.18 6.92 0.88 8.69 2.75 1.04 1.09 2.04 2.66 1.95 4.17l0.04 0C93.02 81.2 92.44 86.5 90.07 92.61zM146.94 91.72c-1.43 9.35-4.96 12.05-24.04 10.68 -6.1-0.44-10.71-3.92-12.98-9.78 -2.37-6.11-2.94-11.41-2.74-13.95l0.04 0c-0.09-1.5 0.91-3.07 1.95-4.17 1.77-1.87 4.96-2.57 8.69-2.75 22.57-1.06 27.92 0.99 29.02 7.35 0.01 0.04 0.13 0.08 0.32 0.1C147.29 80.2 147.71 86.71 146.94 91.72z" fill="#000000" stroke-width="none" opacity="1"></path><path id="SvgjsPath4243" d="M104.94 75.34c0.17-1.26 1.63-5.92 13.54-6.69 5.32-0.34 13.27-0.16 17.46 0.08 4.31 0.24 8.93 0.55 11.39 2.71 1.09 0.95 1.94 2.22 2.56 3.65l0 0c-3.72-6.16-10.22-5.54-14.01-5.75 -2.3-0.13-6.21-0.27-10.28-0.27 -2.77 0-5.15 0.06-7.06 0.19C111.48 69.71 107.56 70.92 104.94 75.34zM95.06 75.34c-0.17-1.26-1.63-5.92-13.54-6.69 -5.32-0.34-13.27-0.16-17.46 0.08 -4.31 0.24-8.93 0.55-11.39 2.71 -1.09 0.95-1.94 2.22-2.56 3.65l0 0c3.72-6.16 10.22-5.54 14.01-5.75 2.3-0.13 6.21-0.27 10.28-0.27 2.77 0 5.15 0.06 7.06 0.19C88.52 69.71 92.44 70.92 95.06 75.34z" fill="#0f0f0f" stroke-width="none" opacity="1"></path></g></g></g><rect id="SvgjsRect1036" width="200" height="15" x="0" y="185" fill="#ecf0f1" opacity="0.5" style="display:none;"></rect><text id="SvgjsText1037" font-family="&quot;Roboto&quot;, &quot;Helvetica Neue&quot;, Helvetica, Arial, sans-serif" style="font-size:0.84em;font-family:&quot;Roboto&quot;, &quot;Helvetica Neue&quot;, Helvetica, Arial, sans-serif;text-anchor:middle;font-weight:400;display:none;" font-size="0.84em" text-anchor="middle" font-weight="400" fill="#000000" x="100" y="185"><tspan id="SvgjsTspan1038" dy="1.2em" x="100" style="font-size:0.84em;font-family:&quot;Roboto&quot;, &quot;Helvetica Neue&quot;, Helvetica, Arial, sans-serif;text-anchor:middle;font-weight:400;">Created by face.co</tspan></text></g><defs id="SvgjsDefs1001"><radialGradient id="SvgjsRadialGradient2886" cx="100" cy="114" r="41" gradientUnits="userSpaceOnUse" class="svga-on-canvas-facehighlight-gradient-single-0"><stop id="SvgjsStop2887" stop-opacity="0.5" stop-color="#855844" offset="0" ></stop><stop id="SvgjsStop2888" stop-opacity="0" stop-color="#764630" offset="0.9" ></stop></radialGradient><radialGradient id="SvgjsRadialGradient2890" cx="100" cy="54" r="37" gradientUnits="userSpaceOnUse" class="svga-on-canvas-facehighlight-gradient-single-1"><stop id="SvgjsStop2891" stop-opacity="0.5" stop-color="#855844" offset="0" ></stop><stop id="SvgjsStop2892" stop-opacity="0" stop-color="#764630" offset="0.9" ></stop></radialGradient><radialGradient id="SvgjsRadialGradient3577" cx="-568.659" cy="-521.042" r="59.751" gradientTransform="matrix(0.096 -0.0248 0.0245 0.0961 141.2814 119.9893)" gradientUnits="userSpaceOnUse" class="svga-on-canvas-eyesiris-gradient-left-1"><stop id="SvgjsStop3578" stop-opacity="1" stop-color="#ffffff" offset="0" ></stop><stop id="SvgjsStop3579" stop-opacity="0" stop-color="#ffffff" offset="1" ></stop></radialGradient><radialGradient id="SvgjsRadialGradient3581" cx="-582.838" cy="-519.099" r="59.745" gradientTransform="matrix(0.0991 8.856319e-004 -0.0011 0.0991 131.1134 135.9855)" gradientUnits="userSpaceOnUse" class="svga-on-canvas-eyesiris-gradient-left-2"><stop id="SvgjsStop3582" stop-opacity="1" stop-color="#ffffff" offset="0" ></stop><stop id="SvgjsStop3583" stop-opacity="0" stop-color="#ffffff" offset="1" ></stop></radialGradient><linearGradient id="SvgjsLinearGradient3587" x1="122.67" y1="88.268" x2="123.606" y2="87.152" gradientTransform="matrix(1 0 0 1 -52 0)" gradientUnits="userSpaceOnUse" class="svga-on-canvas-eyesiris-gradient-left-5"><stop id="SvgjsStop3588" stop-opacity="1" stop-color="#ffffff" offset="0" ></stop><stop id="SvgjsStop3589" stop-opacity="0" stop-color="#ffffff" offset="1" ></stop></linearGradient><linearGradient id="SvgjsLinearGradient3591" x1="127.212" y1="82.296" x2="126.463" y2="83.189" gradientTransform="matrix(1 0 0 1 -52 0)" gradientUnits="userSpaceOnUse" class="svga-on-canvas-eyesiris-gradient-left-6"><stop id="SvgjsStop3592" stop-opacity="1" stop-color="#ffffff" offset="0" ></stop><stop id="SvgjsStop3593" stop-opacity="0" stop-color="#ffffff" offset="1" ></stop></linearGradient><linearGradient id="SvgjsLinearGradient3595" x1="129.636" y1="79.822" x2="127.91" y2="81.879" gradientTransform="matrix(1 0 0 1 -52 0)" gradientUnits="userSpaceOnUse" class="svga-on-canvas-eyesiris-gradient-left-7"><stop id="SvgjsStop3596" stop-opacity="1" stop-color="#ffffff" offset="0" ></stop><stop id="SvgjsStop3597" stop-opacity="0" stop-color="#ffffff" offset="1" ></stop></linearGradient><radialGradient id="SvgjsRadialGradient3600" cx="-568.654" cy="-521.042" r="59.752" gradientTransform="matrix(0.096 -0.0248 0.0245 0.0961 193.2804 119.9894)" gradientUnits="userSpaceOnUse" class="svga-on-canvas-eyesiris-gradient-right-1"><stop id="SvgjsStop3601" stop-opacity="1" stop-color="#ffffff" offset="0" ></stop><stop id="SvgjsStop3602" stop-opacity="0" stop-color="#ffffff" offset="1" ></stop></radialGradient><radialGradient id="SvgjsRadialGradient3604" cx="-582.833" cy="-519.102" r="59.747" gradientTransform="matrix(0.0991 8.856319e-004 -0.0011 0.0991 183.1126 135.9856)" gradientUnits="userSpaceOnUse" class="svga-on-canvas-eyesiris-gradient-right-2"><stop id="SvgjsStop3605" stop-opacity="1" stop-color="#ffffff" offset="0" ></stop><stop id="SvgjsStop3606" stop-opacity="0" stop-color="#ffffff" offset="1" ></stop></radialGradient><linearGradient id="SvgjsLinearGradient3610" x1="122.67" y1="88.268" x2="123.606" y2="87.152" gradientUnits="userSpaceOnUse" class="svga-on-canvas-eyesiris-gradient-right-5"><stop id="SvgjsStop3611" stop-opacity="1" stop-color="#ffffff" offset="0" ></stop><stop id="SvgjsStop3612" stop-opacity="0" stop-color="#ffffff" offset="1" ></stop></linearGradient><linearGradient id="SvgjsLinearGradient3614" x1="127.212" y1="82.296" x2="126.463" y2="83.189" gradientUnits="userSpaceOnUse" class="svga-on-canvas-eyesiris-gradient-right-6"><stop id="SvgjsStop3615" stop-opacity="1" stop-color="#ffffff" offset="0" ></stop><stop id="SvgjsStop3616" stop-opacity="0" stop-color="#ffffff" offset="1" ></stop></linearGradient><linearGradient id="SvgjsLinearGradient3618" x1="129.636" y1="79.822" x2="127.91" y2="81.879" gradientUnits="userSpaceOnUse" class="svga-on-canvas-eyesiris-gradient-right-7"><stop id="SvgjsStop3619" stop-opacity="1" stop-color="#ffffff" offset="0" ></stop><stop id="SvgjsStop3620" stop-opacity="0" stop-color="#ffffff" offset="1" ></stop></linearGradient><linearGradient id="SvgjsLinearGradient3696" x1="130" y1="77" x2="130" y2="98" gradientUnits="userSpaceOnUse" class="svga-on-canvas-glasses-gradient-single-0"><stop id="SvgjsStop3697" stop-opacity="1" stop-color="#26120b" offset="0" ></stop><stop id="SvgjsStop3698" stop-opacity="0.5" stop-color="#26120b" offset="1" ></stop></linearGradient><linearGradient id="SvgjsLinearGradient3700" x1="130" y1="77" x2="130" y2="98" gradientTransform="matrix(-1 0 0 1 200 0)" gradientUnits="userSpaceOnUse" class="svga-on-canvas-glasses-gradient-single-1"><stop id="SvgjsStop3701" stop-opacity="1" stop-color="#26120b" offset="0" ></stop><stop id="SvgjsStop3702" stop-opacity="0.5" stop-color="#26120b" offset="1" ></stop></linearGradient><radialGradient id="SvgjsRadialGradient4127" cx="100" cy="100" r="150" gradientUnits="userSpaceOnUse" class="svga-on-canvas-backs-gradient-single-1"><stop id="SvgjsStop4128" stop-opacity="0" stop-color="#f9f2e7" offset="0" ></stop><stop id="SvgjsStop4129" stop-opacity="1" stop-color="#eadac1" offset="0.2" ></stop><stop id="SvgjsStop4130" stop-opacity="0" stop-color="#eadac1" offset="1" ></stop></radialGradient><linearGradient id="SvgjsLinearGradient4885" x1="100" y1="171" x2="100" y2="131" gradientUnits="userSpaceOnUse" class="svga-on-canvas-chinshadow-gradient-single-0"><stop id="SvgjsStop4886" stop-opacity="0.8" stop-color="#673620" offset="0" ></stop><stop id="SvgjsStop4887" stop-opacity="1" stop-color="#481c08" offset="0.7" ></stop></linearGradient><linearGradient id="SvgjsLinearGradient4889" x1="100" y1="142" x2="100" y2="139" gradientUnits="userSpaceOnUse" class="svga-on-canvas-mouth-gradient-single-0"><stop id="SvgjsStop4890" stop-opacity="1" stop-color="#6e3e27" offset="0.1" ></stop><stop id="SvgjsStop4891" stop-opacity="1" stop-color="#673620" offset="1" ></stop></linearGradient><radialGradient id="SvgjsRadialGradient5003" cx="129.041" cy="83.945" r="15.117" gradientTransform="matrix(-0.9945 0.1042 0.1042 0.9945 192.8281 -12.4633)" gradientUnits="userSpaceOnUse" class="svga-on-canvas-eyesback-gradient-left-0"><stop id="SvgjsStop5004" stop-opacity="1" stop-color="#ffffff" offset="0" ></stop><stop id="SvgjsStop5005" stop-opacity="1" stop-color="#fcfdfd" offset="0.315" ></stop><stop id="SvgjsStop5006" stop-opacity="1" stop-color="#f4f7f8" offset="0.504" ></stop><stop id="SvgjsStop5007" stop-opacity="1" stop-color="#e5ecef" offset="0.66" ></stop><stop id="SvgjsStop5008" stop-opacity="1" stop-color="#d8e2e7" offset="0.76" ></stop></radialGradient><radialGradient id="SvgjsRadialGradient5010" cx="128.643" cy="83.986" r="15.116" gradientTransform="matrix(0.9945 0.1042 -0.1042 0.9945 7.1738 -12.4633)" gradientUnits="userSpaceOnUse" class="svga-on-canvas-eyesback-gradient-right-0"><stop id="SvgjsStop5011" stop-opacity="1" stop-color="#ffffff" offset="0" ></stop><stop id="SvgjsStop5012" stop-opacity="1" stop-color="#fcfdfd" offset="0.316" ></stop><stop id="SvgjsStop5013" stop-opacity="1" stop-color="#f4f7f8" offset="0.505" ></stop><stop id="SvgjsStop5014" stop-opacity="1" stop-color="#e5ecef" offset="0.661" ></stop><stop id="SvgjsStop5015" stop-opacity="1" stop-color="#d8e2e7" offset="0.76" ></stop></radialGradient><radialGradient id="SvgjsRadialGradient5017" cx="129.041" cy="83.945" r="15.117" gradientTransform="matrix(-0.9945 0.1042 0.1042 0.9945 192.8281 -12.4633)" gradientUnits="userSpaceOnUse" class="svga-on-canvas-eyesfront-gradient-left-0"><stop id="SvgjsStop5018" stop-opacity="1" stop-color="#ffffff" offset="0" ></stop><stop id="SvgjsStop5019" stop-opacity="1" stop-color="#fcfdfd" offset="0.316" ></stop><stop id="SvgjsStop5020" stop-opacity="1" stop-color="#f4f7f8" offset="0.505" ></stop><stop id="SvgjsStop5021" stop-opacity="1" stop-color="#e5ecef" offset="0.661" ></stop><stop id="SvgjsStop5022" stop-opacity="1" stop-color="#d8e2e7" offset="0.76" ></stop></radialGradient><radialGradient id="SvgjsRadialGradient5026" cx="121.986" cy="82.496" fx="133.239" fy="82.527" r="16.003" gradientTransform="matrix(0.9998 0.0208 0.0166 -0.7998 -45.3195 145.9395)" gradientUnits="userSpaceOnUse" class="svga-on-canvas-eyesfront-gradient-left-3"><stop id="SvgjsStop5027" stop-opacity="1" stop-color="#673620" offset="0" ></stop><stop id="SvgjsStop5028" stop-opacity="0.3" stop-color="#673620" offset="0.7" ></stop><stop id="SvgjsStop5029" stop-opacity="0" stop-color="#764630" offset="1" ></stop></radialGradient><radialGradient id="SvgjsRadialGradient5031" cx="68.931" cy="105.995" r="29.524" gradientTransform="matrix(1.0336 0 0 1.0336 -1.6796 1.3127)" gradientUnits="userSpaceOnUse" class="svga-on-canvas-eyesfront-gradient-left-4"><stop id="SvgjsStop5032" stop-opacity="0" stop-color="#000000" offset="0.95" ></stop><stop id="SvgjsStop5033" stop-opacity="0.2" stop-color="#000000" offset="1" ></stop></radialGradient><radialGradient id="SvgjsRadialGradient5037" cx="128.643" cy="83.986" r="15.116" gradientTransform="matrix(0.9945 0.1042 -0.1042 0.9945 7.1738 -12.4633)" gradientUnits="userSpaceOnUse" class="svga-on-canvas-eyesfront-gradient-right-0"><stop id="SvgjsStop5038" stop-opacity="1" stop-color="#ffffff" offset="0" ></stop><stop id="SvgjsStop5039" stop-opacity="1" stop-color="#fcfdfd" offset="0.316" ></stop><stop id="SvgjsStop5040" stop-opacity="1" stop-color="#f4f7f8" offset="0.505" ></stop><stop id="SvgjsStop5041" stop-opacity="1" stop-color="#e5ecef" offset="0.661" ></stop><stop id="SvgjsStop5042" stop-opacity="1" stop-color="#d8e2e7" offset="0.76" ></stop></radialGradient><radialGradient id="SvgjsRadialGradient5046" cx="121.587" cy="82.496" fx="132.839" fy="82.527" r="16.003" gradientTransform="matrix(-0.9998 0.0208 -0.0166 -0.7998 244.5208 145.9478)" gradientUnits="userSpaceOnUse" class="svga-on-canvas-eyesfront-gradient-right-3"><stop id="SvgjsStop5047" stop-opacity="1" stop-color="#673620" offset="0" ></stop><stop id="SvgjsStop5048" stop-opacity="0.3" stop-color="#673620" offset="0.7" ></stop><stop id="SvgjsStop5049" stop-opacity="0" stop-color="#764630" offset="1" ></stop></radialGradient><radialGradient id="SvgjsRadialGradient5051" cx="69.316" cy="105.995" r="29.524" gradientTransform="matrix(-1.0336 0 0 1.0336 201.6796 1.3127)" gradientUnits="userSpaceOnUse" class="svga-on-canvas-eyesfront-gradient-right-4"><stop id="SvgjsStop5052" stop-opacity="0" stop-color="#000000" offset="0.95" ></stop><stop id="SvgjsStop5053" stop-opacity="0.2" stop-color="#000000" offset="1" ></stop></radialGradient></defs></svg>